<svg width="38" height="32" viewBox="0 0 38 32" fill="none" xmlns="http://www.w3.org/2000/svg">
<g clip-path="url(#clip0_216_216)">
<g clip-path="url(#clip1_216_216)">
<path fill-rule="evenodd" clip-rule="evenodd" d="M22.127 3.47961C15.9799 3.47961 10.9966 8.46288 10.9966 14.6101V15.2609C8.93508 16.2854 7.51834 18.4127 7.51834 20.871C7.51834 24.3287 10.3214 27.1318 13.7792 27.1318H30.4748C33.9327 27.1318 36.7357 24.3287 36.7357 20.871C36.7357 18.4127 35.319 16.2854 33.2575 15.2609V14.6101C33.2575 8.46288 28.2742 3.47961 22.127 3.47961Z" fill="#9069CD"/>
<path d="M13.7792 14.6101C13.7792 9.99965 17.5167 6.26222 22.127 6.26222C26.7374 6.26222 30.4748 9.99965 30.4748 14.6101V20.1753C30.4748 24.7857 26.7374 28.5231 22.127 28.5231C17.5167 28.5231 13.7792 24.7857 13.7792 20.1753V14.6101Z" fill="#F3AD6D"/>
<path d="M10.9966 17.0449C10.9966 15.316 12.3981 13.9144 14.127 13.9144H30.127C31.8559 13.9144 33.2575 15.316 33.2575 17.0449C33.2575 18.7737 31.8559 20.1753 30.127 20.1753H14.127C12.3981 20.1753 10.9966 18.7737 10.9966 17.0449Z" fill="#F3AD6D"/>
<path d="M18.6488 14.2623C18.6488 13.6859 19.116 13.2188 19.6922 13.2188C20.2685 13.2188 20.7357 13.6859 20.7357 14.2623V17.0449C20.7357 17.6211 20.2685 18.0883 19.6922 18.0883C19.116 18.0883 18.6488 17.6211 18.6488 17.0449V14.2623Z" fill="#BF8034"/>
<path d="M22.8227 14.2623C22.8227 13.6859 23.2899 13.2188 23.8662 13.2188C24.4424 13.2188 24.9096 13.6859 24.9096 14.2623V17.0449C24.9096 17.6211 24.4424 18.0883 23.8662 18.0883C23.2899 18.0883 22.8227 17.6211 22.8227 17.0449V14.2623Z" fill="#BF8034"/>
<path d="M17.9531 20.2049C17.9531 19.8043 18.2778 19.4796 18.6784 19.4796H24.8801C25.2806 19.4796 25.6053 19.8043 25.6053 20.2049V20.5231C25.6053 22.6362 23.8923 24.3492 21.7792 24.3492C19.6662 24.3492 17.9531 22.6362 17.9531 20.5231V20.2049Z" fill="white"/>
<path d="M10.9966 14.613V14.6101C10.9966 8.46288 15.9799 3.47961 22.127 3.47961C24.1008 3.47961 25.9546 3.99338 27.5619 4.89447C26.6835 10.7826 21.4703 15.3057 15.1705 15.3057C13.707 15.3057 12.3021 15.0616 10.9966 14.613Z" fill="#9069CD"/>
</g>
</g>
<mask id="path-8-inside-1_216_216" fill="white">
<path d="M26.8 5.6C26.8 2.50721 29.3072 0 32.4 0C35.4928 0 38 2.50721 38 5.6C38 8.69279 35.4928 11.2 32.4 11.2C29.3072 11.2 26.8 8.69279 26.8 5.6Z"/>
</mask>
<path d="M26.8 5.6C26.8 2.50721 29.3072 0 32.4 0C35.4928 0 38 2.50721 38 5.6C38 8.69279 35.4928 11.2 32.4 11.2C29.3072 11.2 26.8 8.69279 26.8 5.6Z" fill="#FF4B4B"/>
<path d="M32.4 11.2V10.2C29.8595 10.2 27.8 8.14051 27.8 5.6H26.8H25.8C25.8 9.24508 28.7549 12.2 32.4 12.2V11.2ZM38 5.6H37C37 8.14051 34.9405 10.2 32.4 10.2V11.2V12.2C36.0451 12.2 39 9.24508 39 5.6H38ZM32.4 0V1C34.9405 1 37 3.05949 37 5.6H38H39C39 1.95492 36.0451 -1 32.4 -1V0ZM32.4 0V-1C28.7549 -1 25.8 1.95492 25.8 5.6H26.8H27.8C27.8 3.05949 29.8595 1 32.4 1V0Z" fill="white" mask="url(#path-8-inside-1_216_216)"/>
<defs>
<clipPath id="clip0_216_216">
<rect width="32" height="32" fill="white" transform="translate(6)"/>
</clipPath>
<clipPath id="clip1_216_216">
<rect width="32" height="32" fill="white" transform="translate(6)"/>
</clipPath>
</defs>
</svg>
